<?xml version="1.0" encoding="UTF-8" standalone="no"?>
<!DOCTYPE svg PUBLIC "-//W3C//DTD SVG 1.1//EN"
 "http://www.w3.org/Graphics/SVG/1.1/DTD/svg11.dtd">
<!-- Generated by graphviz version 2.26.3 (20100126.1600)
 -->
<!-- Title: G Pages: 1 -->
<svg width="454pt" height="914pt"
 viewBox="0.00 0.00 454.00 914.00" xmlns="http://www.w3.org/2000/svg" xmlns:xlink="http://www.w3.org/1999/xlink">
<g id="graph1" class="graph" transform="scale(1 1) rotate(0) translate(4 910)">
<title>G</title>
<polygon fill="white" stroke="white" points="-4,5 -4,-910 451,-910 451,5 -4,5"/>
<g id="graph2" class="cluster"><title>cluster_Global</title>
<polyline fill="none" stroke="gray" points="20,-8 426,-8 "/>
<path fill="none" stroke="gray" d="M426,-8C432,-8 438,-14 438,-20"/>
<polyline fill="none" stroke="gray" points="438,-20 438,-886 "/>
<path fill="none" stroke="gray" d="M438,-886C438,-892 432,-898 426,-898"/>
<polyline fill="none" stroke="gray" points="426,-898 20,-898 "/>
<path fill="none" stroke="gray" d="M20,-898C14,-898 8,-892 8,-886"/>
<polyline fill="none" stroke="gray" points="8,-886 8,-20 "/>
<path fill="none" stroke="gray" d="M8,-20C8,-14 14,-8 20,-8"/>
<text text-anchor="middle" x="223" y="-884.1" font-family="Times Roman,serif" font-size="11.00" fill="gray">Global</text>
</g>
<g id="graph3" class="cluster"><title>cluster_\API</title>
<polyline fill="none" stroke="gray" points="28,-60 418,-60 "/>
<path fill="none" stroke="gray" d="M418,-60C424,-60 430,-66 430,-72"/>
<polyline fill="none" stroke="gray" points="430,-72 430,-856 "/>
<path fill="none" stroke="gray" d="M430,-856C430,-862 424,-868 418,-868"/>
<polyline fill="none" stroke="gray" points="418,-868 28,-868 "/>
<path fill="none" stroke="gray" d="M28,-868C22,-868 16,-862 16,-856"/>
<polyline fill="none" stroke="gray" points="16,-856 16,-72 "/>
<path fill="none" stroke="gray" d="M16,-72C16,-66 22,-60 28,-60"/>
<text text-anchor="middle" x="223" y="-854.1" font-family="Times Roman,serif" font-size="11.00" fill="gray">API</text>
</g>
<g id="graph4" class="cluster"><title>cluster_\API\Answer</title>
<polyline fill="none" stroke="gray" points="190,-440 410,-440 "/>
<path fill="none" stroke="gray" d="M410,-440C416,-440 422,-446 422,-452"/>
<polyline fill="none" stroke="gray" points="422,-452 422,-826 "/>
<path fill="none" stroke="gray" d="M422,-826C422,-832 416,-838 410,-838"/>
<polyline fill="none" stroke="gray" points="410,-838 190,-838 "/>
<path fill="none" stroke="gray" d="M190,-838C184,-838 178,-832 178,-826"/>
<polyline fill="none" stroke="gray" points="178,-826 178,-452 "/>
<path fill="none" stroke="gray" d="M178,-452C178,-446 184,-440 190,-440"/>
<text text-anchor="middle" x="300" y="-824.1" font-family="Times Roman,serif" font-size="11.00" fill="gray">Answer</text>
</g>
<g id="graph5" class="cluster"><title>cluster_\API\Lists</title>
<polyline fill="none" stroke="gray" points="190,-196 401,-196 "/>
<path fill="none" stroke="gray" d="M401,-196C407,-196 413,-202 413,-208"/>
<polyline fill="none" stroke="gray" points="413,-208 413,-420 "/>
<path fill="none" stroke="gray" d="M413,-420C413,-426 407,-432 401,-432"/>
<polyline fill="none" stroke="gray" points="401,-432 190,-432 "/>
<path fill="none" stroke="gray" d="M190,-432C184,-432 178,-426 178,-420"/>
<polyline fill="none" stroke="gray" points="178,-420 178,-208 "/>
<path fill="none" stroke="gray" d="M178,-208C178,-202 184,-196 190,-196"/>
<text text-anchor="middle" x="295.5" y="-418.1" font-family="Times Roman,serif" font-size="11.00" fill="gray">Lists</text>
</g>
<g id="graph6" class="cluster"><title>cluster_\API\Arff</title>
<polyline fill="none" stroke="gray" points="202,-114 248,-114 "/>
<path fill="none" stroke="gray" d="M248,-114C254,-114 260,-120 260,-126"/>
<polyline fill="none" stroke="gray" points="260,-126 260,-176 "/>
<path fill="none" stroke="gray" d="M260,-176C260,-182 254,-188 248,-188"/>
<polyline fill="none" stroke="gray" points="248,-188 202,-188 "/>
<path fill="none" stroke="gray" d="M202,-188C196,-188 190,-182 190,-176"/>
<polyline fill="none" stroke="gray" points="190,-176 190,-126 "/>
<path fill="none" stroke="gray" d="M190,-126C190,-120 196,-114 202,-114"/>
<text text-anchor="middle" x="225" y="-174.1" font-family="Times Roman,serif" font-size="11.00" fill="gray">Arff</text>
</g>
<!-- \\API\\Answer\\Team -->
<g id="node4" class="node"><title>\\API\\Answer\\Team</title>
<polygon fill="none" stroke="black" points="402,-808 348,-808 348,-772 402,-772 402,-808"/>
<text text-anchor="middle" x="375" y="-787.1" font-family="Times Roman,serif" font-size="11.00">Team</text>
</g>
<!-- \\API\\Answer\\Answer -->
<g id="node8" class="node"><title>\\API\\Answer\\Answer</title>
<polygon fill="none" stroke="black" points="263,-619 187,-619 187,-583 263,-583 263,-619"/>
<text text-anchor="start" x="195" y="-606.433" font-family="Times Roman,serif" font-size="11.00">«abstract»</text>
<text text-anchor="start" x="204" y="-593.233" font-family="Times Roman,serif" font-size="11.00">Answer</text>
</g>
<!-- \\API\\Answer\\Team&#45;&gt;\\API\\Answer\\Answer -->
<g id="edge7" class="edge"><title>\\API\\Answer\\Team&#45;&gt;\\API\\Answer\\Answer</title>
<path fill="none" stroke="black" d="M347.96,-773.219C343.746,-770.069 339.602,-766.619 336,-763 294.452,-721.251 258.431,-662.074 239.398,-628.004"/>
<polygon fill="none" stroke="black" points="242.381,-626.165 234.489,-619.096 236.25,-629.543 242.381,-626.165"/>
</g>
<!-- \\API\\Answer\\Won -->
<g id="node5" class="node"><title>\\API\\Answer\\Won</title>
<polygon fill="none" stroke="black" points="402,-754 348,-754 348,-718 402,-718 402,-754"/>
<text text-anchor="middle" x="375" y="-733.1" font-family="Times Roman,serif" font-size="11.00">Won</text>
</g>
<!-- \\API\\Answer\\Won&#45;&gt;\\API\\Answer\\Answer -->
<g id="edge13" class="edge"><title>\\API\\Answer\\Won&#45;&gt;\\API\\Answer\\Answer</title>
<path fill="none" stroke="black" d="M347.717,-717.977C343.707,-715.081 339.688,-712.035 336,-709 304.105,-682.75 270.515,-649.11 248.752,-626.404"/>
<polygon fill="none" stroke="black" points="251.275,-623.978 241.844,-619.149 246.205,-628.805 251.275,-623.978"/>
</g>
<!-- \\API\\Answer\\Tabelle -->
<g id="node6" class="node"><title>\\API\\Answer\\Tabelle</title>
<polygon fill="none" stroke="black" points="402,-700 348,-700 348,-664 402,-664 402,-700"/>
<text text-anchor="middle" x="375" y="-679.1" font-family="Times Roman,serif" font-size="11.00">Tabelle</text>
</g>
<!-- \\API\\Answer\\Tabelle&#45;&gt;\\API\\Answer\\Answer -->
<g id="edge17" class="edge"><title>\\API\\Answer\\Tabelle&#45;&gt;\\API\\Answer\\Answer</title>
<path fill="none" stroke="black" d="M347.836,-667.332C325.406,-655.219 293.18,-637.817 267.363,-623.876"/>
<polygon fill="none" stroke="black" points="268.987,-620.775 258.525,-619.104 265.661,-626.935 268.987,-620.775"/>
</g>
<!-- \\API\\Answer\\Firstgame -->
<g id="node7" class="node"><title>\\API\\Answer\\Firstgame</title>
<polygon fill="none" stroke="black" points="410,-646 340,-646 340,-610 410,-610 410,-646"/>
<text text-anchor="middle" x="375" y="-625.1" font-family="Times Roman,serif" font-size="11.00">Firstgame</text>
</g>
<!-- \\API\\Answer\\Firstgame&#45;&gt;\\API\\Answer\\Answer -->
<g id="edge21" class="edge"><title>\\API\\Answer\\Firstgame&#45;&gt;\\API\\Answer\\Answer</title>
<path fill="none" stroke="black" d="M339.452,-621.601C319.782,-618.061 295.051,-613.609 273.616,-609.751"/>
<polygon fill="none" stroke="black" points="274.174,-606.295 263.713,-607.968 272.934,-613.185 274.174,-606.295"/>
</g>
<!-- \\API\\IDataProvider -->
<g id="node22" class="node"><title>\\API\\IDataProvider</title>
<polygon fill="none" stroke="black" points="113,-321 25,-321 25,-285 113,-285 113,-321"/>
<text text-anchor="middle" x="69" y="-300.1" font-family="Times Roman,serif" font-size="11.00">IDataProvider</text>
</g>
<!-- \\API\\Answer\\Answer&#45;&gt;\\API\\IDataProvider -->
<g id="edge23" class="edge"><title>\\API\\Answer\\Answer&#45;&gt;\\API\\IDataProvider</title>
<path fill="none" stroke="black" stroke-dasharray="1,5" d="M215.476,-582.807C189.041,-532.308 114.639,-390.182 83.2515,-330.224"/>
<polygon fill="none" stroke="black" points="86.336,-328.569 78.5972,-321.333 80.1343,-331.816 86.336,-328.569"/>
</g>
<!-- \\API\\Answer\\Playergoals -->
<g id="node9" class="node"><title>\\API\\Answer\\Playergoals</title>
<polygon fill="none" stroke="black" points="414,-592 336,-592 336,-556 414,-556 414,-592"/>
<text text-anchor="middle" x="375" y="-571.1" font-family="Times Roman,serif" font-size="11.00">Playergoals</text>
</g>
<!-- \\API\\Answer\\Playergoals&#45;&gt;\\API\\Answer\\Answer -->
<g id="edge29" class="edge"><title>\\API\\Answer\\Playergoals&#45;&gt;\\API\\Answer\\Answer</title>
<path fill="none" stroke="black" d="M335.981,-581.023C316.896,-584.459 293.738,-588.627 273.524,-592.266"/>
<polygon fill="none" stroke="black" points="272.786,-588.842 263.564,-594.058 274.026,-595.732 272.786,-588.842"/>
</g>
<!-- \\API\\Answer\\Loser -->
<g id="node10" class="node"><title>\\API\\Answer\\Loser</title>
<polygon fill="none" stroke="black" points="402,-538 348,-538 348,-502 402,-502 402,-538"/>
<text text-anchor="middle" x="375" y="-517.1" font-family="Times Roman,serif" font-size="11.00">Loser</text>
</g>
<!-- \\API\\Answer\\Loser&#45;&gt;\\API\\Answer\\Answer -->
<g id="edge31" class="edge"><title>\\API\\Answer\\Loser&#45;&gt;\\API\\Answer\\Answer</title>
<path fill="none" stroke="black" d="M347.836,-534.668C325.406,-546.781 293.18,-564.183 267.363,-578.124"/>
<polygon fill="none" stroke="black" points="265.661,-575.065 258.525,-582.896 268.987,-581.225 265.661,-575.065"/>
</g>
<!-- \\API\\Answer\\Spieltag -->
<g id="node11" class="node"><title>\\API\\Answer\\Spieltag</title>
<polygon fill="none" stroke="black" points="405,-484 345,-484 345,-448 405,-448 405,-484"/>
<text text-anchor="middle" x="375" y="-463.1" font-family="Times Roman,serif" font-size="11.00">Spieltag</text>
</g>
<!-- \\API\\Answer\\Spieltag&#45;&gt;\\API\\Answer\\Answer -->
<g id="edge35" class="edge"><title>\\API\\Answer\\Spieltag&#45;&gt;\\API\\Answer\\Answer</title>
<path fill="none" stroke="black" d="M347.717,-484.023C343.707,-486.919 339.688,-489.965 336,-493 304.105,-519.25 270.515,-552.89 248.752,-575.596"/>
<polygon fill="none" stroke="black" points="246.205,-573.195 241.844,-582.851 251.275,-578.022 246.205,-573.195"/>
</g>
<!-- \\API\\Lists\\Lists -->
<g id="node13" class="node"><title>\\API\\Lists\\Lists</title>
<polygon fill="none" stroke="black" points="263,-321 187,-321 187,-285 263,-285 263,-321"/>
<text text-anchor="start" x="195" y="-308.433" font-family="Times Roman,serif" font-size="11.00">«abstract»</text>
<text text-anchor="start" x="212.5" y="-295.233" font-family="Times Roman,serif" font-size="11.00">Lists</text>
</g>
<!-- \\API\\Lists\\Lists&#45;&gt;\\API\\IDataProvider -->
<g id="edge9" class="edge"><title>\\API\\Lists\\Lists&#45;&gt;\\API\\IDataProvider</title>
<path fill="none" stroke="black" stroke-dasharray="1,5" d="M186.438,-303C167.605,-303 144.609,-303 123.974,-303"/>
<polygon fill="none" stroke="black" points="123.749,-299.5 113.749,-303 123.749,-306.5 123.749,-299.5"/>
</g>
<!-- \\API\\Lists\\Saison -->
<g id="node14" class="node"><title>\\API\\Lists\\Saison</title>
<polygon fill="none" stroke="black" points="402,-402 348,-402 348,-366 402,-366 402,-402"/>
<text text-anchor="middle" x="375" y="-381.1" font-family="Times Roman,serif" font-size="11.00">Saison</text>
</g>
<!-- \\API\\Lists\\Saison&#45;&gt;\\API\\Lists\\Lists -->
<g id="edge11" class="edge"><title>\\API\\Lists\\Saison&#45;&gt;\\API\\Lists\\Lists</title>
<path fill="none" stroke="black" d="M347.836,-369.332C325.406,-357.219 293.18,-339.817 267.363,-325.876"/>
<polygon fill="none" stroke="black" points="268.987,-322.775 258.525,-321.104 265.661,-328.935 268.987,-322.775"/>
</g>
<!-- \\API\\Lists\\Spieltag -->
<g id="node15" class="node"><title>\\API\\Lists\\Spieltag</title>
<polygon fill="none" stroke="black" points="405,-348 345,-348 345,-312 405,-312 405,-348"/>
<text text-anchor="middle" x="375" y="-327.1" font-family="Times Roman,serif" font-size="11.00">Spieltag</text>
</g>
<!-- \\API\\Lists\\Spieltag&#45;&gt;\\API\\Lists\\Lists -->
<g id="edge15" class="edge"><title>\\API\\Lists\\Spieltag&#45;&gt;\\API\\Lists\\Lists</title>
<path fill="none" stroke="black" d="M344.645,-324.536C324.287,-320.872 297.029,-315.965 273.673,-311.761"/>
<polygon fill="none" stroke="black" points="274.057,-308.274 263.595,-309.947 272.817,-315.163 274.057,-308.274"/>
</g>
<!-- \\API\\Lists\\Liga -->
<g id="node16" class="node"><title>\\API\\Lists\\Liga</title>
<polygon fill="none" stroke="black" points="402,-294 348,-294 348,-258 402,-258 402,-294"/>
<text text-anchor="middle" x="375" y="-273.1" font-family="Times Roman,serif" font-size="11.00">Liga</text>
</g>
<!-- \\API\\Lists\\Liga&#45;&gt;\\API\\Lists\\Lists -->
<g id="edge25" class="edge"><title>\\API\\Lists\\Liga&#45;&gt;\\API\\Lists\\Lists</title>
<path fill="none" stroke="black" d="M347.836,-280.889C327.134,-284.616 298.086,-289.845 273.434,-294.282"/>
<polygon fill="none" stroke="black" points="272.751,-290.849 263.529,-296.065 273.991,-297.738 272.751,-290.849"/>
</g>
<!-- \\API\\Lists\\Verein -->
<g id="node17" class="node"><title>\\API\\Lists\\Verein</title>
<polygon fill="none" stroke="black" points="402,-240 348,-240 348,-204 402,-204 402,-240"/>
<text text-anchor="middle" x="375" y="-219.1" font-family="Times Roman,serif" font-size="11.00">Verein</text>
</g>
<!-- \\API\\Lists\\Verein&#45;&gt;\\API\\Lists\\Lists -->
<g id="edge27" class="edge"><title>\\API\\Lists\\Verein&#45;&gt;\\API\\Lists\\Lists</title>
<path fill="none" stroke="black" d="M347.836,-236.668C325.406,-248.781 293.18,-266.183 267.363,-280.124"/>
<polygon fill="none" stroke="black" points="265.661,-277.065 258.525,-284.896 268.987,-283.225 265.661,-277.065"/>
</g>
<!-- \\API\\Arff\\Arff -->
<g id="node19" class="node"><title>\\API\\Arff\\Arff</title>
<polygon fill="none" stroke="black" points="252,-158 198,-158 198,-122 252,-122 252,-158"/>
<text text-anchor="middle" x="225" y="-137.1" font-family="Times Roman,serif" font-size="11.00">Arff</text>
</g>
<!-- \\API\\Arff\\Arff&#45;&gt;\\API\\IDataProvider -->
<g id="edge33" class="edge"><title>\\API\\Arff\\Arff&#45;&gt;\\API\\IDataProvider</title>
<path fill="none" stroke="black" stroke-dasharray="1,5" d="M207.709,-158.067C179.948,-187.073 125.337,-244.135 93.5481,-277.35"/>
<polygon fill="none" stroke="black" points="90.7539,-275.208 86.3682,-284.852 95.8111,-280.048 90.7539,-275.208"/>
</g>
<!-- \\API\\Config -->
<g id="node20" class="node"><title>\\API\\Config</title>
<polygon fill="none" stroke="black" points="402,-173 348,-173 348,-137 402,-137 402,-173"/>
<text text-anchor="middle" x="375" y="-152.1" font-family="Times Roman,serif" font-size="11.00">Config</text>
</g>
<!-- \\API\\PGQuery -->
<g id="node21" class="node"><title>\\API\\PGQuery</title>
<polygon fill="none" stroke="black" points="407,-106 343,-106 343,-70 407,-70 407,-106"/>
<text text-anchor="middle" x="375" y="-85.1" font-family="Times Roman,serif" font-size="11.00">PGQuery</text>
</g>
<!-- \\API\\IQuery -->
<g id="node23" class="node"><title>\\API\\IQuery</title>
<polygon fill="none" stroke="black" points="252,-104 198,-104 198,-68 252,-68 252,-104"/>
<text text-anchor="middle" x="225" y="-83.1" font-family="Times Roman,serif" font-size="11.00">IQuery</text>
</g>
<!-- \\API\\PGQuery&#45;&gt;\\API\\IQuery -->
<g id="edge19" class="edge"><title>\\API\\PGQuery&#45;&gt;\\API\\IQuery</title>
<path fill="none" stroke="black" stroke-dasharray="1,5" d="M342.452,-87.566C318.929,-87.2524 287.099,-86.828 262.508,-86.5001"/>
<polygon fill="none" stroke="black" points="262.504,-82.9998 252.458,-86.3661 262.41,-89.9992 262.504,-82.9998"/>
</g>
<!-- \\Import -->
<g id="node24" class="node"><title>\\Import</title>
<polygon fill="none" stroke="black" points="402,-52 348,-52 348,-16 402,-16 402,-52"/>
<text text-anchor="middle" x="375" y="-31.1" font-family="Times Roman,serif" font-size="11.00">Import</text>
</g>
</g>
</svg>
